# File created by Blade
# Date/Time:  Wed Jan 21 19:09:01 2015
#---------------------------------------------------------
:version 1.10
:name HOM
:units
  mass 1.0
  length 1.000000
  angle deg
:documentation
     Acclaim Skeleton File
:root
   axis xyz
   order TX TY TZ RX RY RZ
   position 0.000000 0.000000 0.000000
   orientation 0 0 0
:bonedata
   begin
      id 1
      name RightUpLeg_dum
      direction -1.000000 0.000000 0.000000
      length 3.693983
      axis 0.0 0.0 0.0 xyz
   end
   begin
      id 2
      name LeftUpLeg_dum
      direction 1.000000 0.000000 0.000000
      length 3.693983
      axis 0.0 0.0 0.0 xyz
   end
   begin
      id 3
      name Spine_dum
      direction 0.000000 1.000000 0.000000
      length 2.392956
      axis 0.0 0.0 0.0 xyz
   end
   begin
      id 4
      name RightUpLeg
      direction 0.000000 -1.000000 0.000000
      length 15.795667
      axis 0.0 0.0 0.0 xyz
      dof rx ry rz
   end
   begin
      id 5
      name RightLeg
      direction 0.000000 -1.000000 0.000000
      length 14.766989
      axis 0.0 0.0 0.0 xyz
      dof rx ry rz
   end
   begin
      id 6
      name RightFoot
      direction 0.000000 -0.258819 0.965926
      length 4.962790
      axis 15.0 0.0 0.0 xyz
      dof rx ry rz
   end
   begin
      id 7
      name RightToeBase
      direction 0.000000 0.000000 1.000000
      length 2.952750
      axis 0.0 0.0 0.0 xyz
      dof rx ry rz
   end
   begin
      id 8
      name LeftUpLeg
      direction 0.000000 -1.000000 0.000000
      length 15.795667
      axis 0.0 0.0 0.0 xyz
      dof rx ry rz
   end
   begin
      id 9
      name LeftLeg
      direction 0.000000 -1.000000 0.000000
      length 14.766989
      axis 0.0 0.0 0.0 xyz
      dof rx ry rz
   end
   begin
      id 10
      name LeftFoot
      direction 0.000000 -0.258819 0.965926
      length 4.962790
      axis 15.0 0.0 0.0 xyz
      dof rx ry rz
   end
   begin
      id 11
      name LeftToeBase
      direction 0.000000 0.000000 1.000000
      length 2.952750
      axis 0.0 0.0 0.0 xyz
      dof rx ry rz
   end
   begin
      id 12
      name Spine
      direction 0.000000 1.000000 0.000000
      length 0.000000
      axis 0.0 0.0 0.0 xyz
      dof rx ry rz
   end
   begin
      id 13
      name Spine_dum1
      direction 0.000000 1.000000 0.000000
      length 13.207411
      axis 0.0 0.0 0.0 xyz
   end
   begin
      id 14
      name Spine_dum2
      direction 0.000000 1.000000 0.000000
      length 13.207411
      axis 0.0 0.0 0.0 xyz
   end
   begin
      id 15
      name Spine_dum3
      direction 0.000000 1.000000 0.000000
      length 19.250100
      axis 0.0 0.0 0.0 xyz
   end
   begin
      id 16
      name RightShoulder
      direction -1.000000 0.000000 0.000000
      length 8.140465
      axis 0.0 0.0 90.0 xyz
      dof rx ry rz
   end
   begin
      id 17
      name RightArm
      direction -1.000000 0.000000 0.000000
      length 10.649840
      axis 0.0 0.0 90.0 xyz
      dof rx ry rz
   end
   begin
      id 18
      name RightForeArm
      direction -1.000000 0.000000 0.000000
      length 8.304624
      axis 0.0 0.0 90.0 xyz
      dof ry rz rx
   end
   begin
      id 19
      name RightHand
      direction -1.000000 0.000000 0.000000
      length 0.000000
      axis 0.0 0.0 90.0 xyz
      dof rx ry rz
   end
   begin
      id 20
      name RightHand_dum1
      direction -1.000000 0.000000 0.000000
      length 3.937000
      axis 0.0 0.0 90.0 xyz
   end
   begin
      id 21
      name RightHand_dum2
      direction 0.000000 0.000000 0.000000
      length 0.000000
      axis 0.0 0.0 90.0 xyz
   end
   begin
      id 22
      name RightHandThumb1
      direction 0.000000 0.000000 1.000000
      length 3.937000
      axis 0.0 0.0 90.0 xyz
      dof rx rz ry
   end
   begin
      id 23
      name LeftShoulder
      direction 1.000000 0.000000 0.000000
      length 8.140465
      axis 0.0 0.0 -90.0 xyz
      dof rx ry rz
   end
   begin
      id 24
      name LeftArm
      direction 1.000000 0.000000 0.000000
      length 10.649840
      axis 0.0 0.0 -90.0 xyz
      dof rx ry rz
   end
   begin
      id 25
      name LeftForeArm
      direction 1.000000 0.000000 0.000000
      length 8.304624
      axis 0.0 0.0 -90.0 xyz
      dof ry rz rx
   end
   begin
      id 26
      name LeftHand
      direction 1.000000 0.000000 0.000000
      length 0.000000
      axis 0.0 0.0 -90.0 xyz
      dof rx ry rz
   end
   begin
      id 27
      name LeftHand_dum1
      direction 1.000000 0.000000 0.000000
      length 3.937000
      axis 0.0 0.0 -90.0 xyz
   end
   begin
      id 28
      name LeftHand_dum2
      direction 0.000000 0.000000 0.000000
      length 0.000000
      axis 0.0 0.0 -90.0 xyz
   end
   begin
      id 29
      name LeftHandThumb1
      direction 0.000000 0.000000 1.000000
      length 3.937000
      axis 0.0 0.0 -90.0 xyz
      dof rx rz ry
   end
   begin
      id 30
      name Head
      direction 0.000000 1.000000 0.000000
      length 4.527550
      axis 0.0 0.0 0.0 xyz
      dof rx ry rz
   end
:hierarchy
   begin
      root RightUpLeg_dum LeftUpLeg_dum Spine_dum
      RightUpLeg_dum RightUpLeg
      LeftUpLeg_dum LeftUpLeg
      Spine_dum Spine
      RightUpLeg RightLeg
      RightLeg RightFoot
      RightFoot RightToeBase
      LeftUpLeg LeftLeg
      LeftLeg LeftFoot
      LeftFoot LeftToeBase
      Spine Spine_dum1 Spine_dum2 Spine_dum3
      Spine_dum1 RightShoulder
      Spine_dum2 LeftShoulder
      Spine_dum3 Head
      RightShoulder RightArm
      RightArm RightForeArm
      RightForeArm RightHand
      RightHand RightHand_dum1 RightHand_dum2
      RightHand_dum2 RightHandThumb1
      LeftShoulder LeftArm
      LeftArm LeftForeArm
      LeftForeArm LeftHand
      LeftHand LeftHand_dum1 LeftHand_dum2
      LeftHand_dum2 LeftHandThumb1
   end

# File created by Blade
# Date/Time:  Wed Jan 21 19:08:52 2015
# Frame Rate: 120.000 fps
#------------------------------------------------------
:FULLY-SPECIFIED
:DEGREES
395
root -2.454541 31.583923 -6.621178 58.500796 22.074387 9.956398
RightUpLeg -58.329794 3.234412 13.326892
RightLeg 3.712866 -0.000000 -0.000000
RightFoot -9.736240 -4.568248 4.981166
RightToeBase 20.696210 -0.000000 -0.000000
LeftUpLeg -45.737351 -20.189003 3.466790
LeftLeg -7.577320 -0.000000 0.000000
LeftFoot -8.748165 -6.289392 -7.056259
LeftToeBase 11.515704 -0.000000 -0.000000
Spine -36.372237 -29.750126 -20.648136
RightShoulder -24.017419 16.363398 -73.354447
RightArm -6.733831 -15.945465 20.756343
RightForeArm 11.441741 -0.000000 -6.428878
RightHand 9.058663 0.000000 6.492689
RightHandThumb1 -24.326973 -0.000000 -32.862282
LeftShoulder -10.305671 5.157884 5.983034
LeftArm 22.022070 0.288702 -64.659481
LeftForeArm 18.567481 -0.000000 0.355134
LeftHand -26.151669 0.000000 14.961067
LeftHandThumb1 -26.253704 0.000000 33.147579
Head -10.867115 -6.021443 -32.634448
396
root -2.456664 31.583323 -6.614247 58.630574 22.109672 9.939927
RightUpLeg -58.438777 3.281502 13.327926
RightLeg 3.685375 -0.000000 -0.000000
RightFoot -9.703320 -4.589718 4.967666
RightToeBase 20.741312 -0.000000 -0.000000
LeftUpLeg -45.881812 -20.206409 3.590802
LeftLeg -7.588257 -0.000000 0.000000
LeftFoot -8.770355 -6.260972 -7.016680
LeftToeBase 11.540276 -0.000000 -0.000000
Spine -36.261394 -29.799225 -20.769975
RightShoulder -24.054449 16.402305 -73.497697
RightArm -6.709953 -16.184176 20.312032
RightForeArm 11.447358 0.000000 -6.408797
RightHand 9.247633 0.000000 6.189946
RightHandThumb1 -24.326973 -0.000000 -32.862282
LeftShoulder -10.180459 5.079192 5.931754
LeftArm 21.833711 0.382815 -64.886656
LeftForeArm 18.591568 -0.000000 0.297536
LeftHand -26.094612 0.000000 14.771129
LeftHandThumb1 -26.253704 0.000000 33.147579
Head -10.989142 -5.988463 -32.822378
397
root -2.457496 31.582488 -6.609452 58.786268 22.147772 9.930192
RightUpLeg -58.581437 3.324277 13.324862
RightLeg 3.669561 -0.000000 -0.000000
RightFoot -9.682861 -4.596652 4.952429
RightToeBase 20.752783 -0.000000 -0.000000
LeftUpLeg -46.057344 -20.226890 3.712962
LeftLeg -7.596440 -0.000000 0.000000
LeftFoot -8.766880 -6.197214 -6.885410
LeftToeBase 11.447193 -0.000000 -0.000000
Spine -36.183961 -29.869534 -20.837398
RightShoulder -24.110342 16.446772 -73.721813
RightArm -6.683191 -16.330539 19.936994
RightForeArm 11.377071 -0.000000 -6.389086
RightHand 9.451198 0.000000 5.695229
RightHandThumb1 -24.326973 -0.000000 -32.862282
LeftShoulder -10.154714 5.062676 5.810282
LeftArm 21.813019 0.631254 -65.007600
LeftForeArm 18.384159 0.000000 0.157185
LeftHand -26.026692 -0.000000 14.687661
LeftHandThumb1 -26.253704 0.000000 33.147579
Head -11.161655 -5.948002 -33.079575
398
root -2.457909 31.582426 -6.605544 58.922511 22.186491 9.914431
RightUpLeg -58.702036 3.351520 13.344931
RightLeg 3.646670 -0.000000 -0.000000
RightFoot -9.658415 -4.585828 4.989469
RightToeBase 20.974364 -0.000000 -0.000000
LeftUpLeg -46.217569 -20.255919 3.842661
LeftLeg -7.596455 -0.000000 0.000000
LeftFoot -8.768308 -6.156978 -6.846453
LeftToeBase 11.400525 -0.000000 -0.000000
Spine -36.076395 -29.941086 -20.942755
RightShoulder -24.129593 16.431674 -73.794538
RightArm -6.595758 -16.518073 19.496791
RightForeArm 11.339013 -0.000000 -6.448408
RightHand 9.626998 -0.000000 5.414240
RightHandThumb1 -24.326973 -0.000000 -32.862282
LeftShoulder -10.059494 4.969375 5.760486
LeftArm 21.642002 0.808279 -65.204503
LeftForeArm 18.327414 -0.000000 0.096977
LeftHand -25.891658 0.000000 14.705385
LeftHandThumb1 -26.253704 0.000000 33.147579
Head -11.282050 -5.918814 -33.207732
399
root -2.458784 31.580621 -6.603122 59.018362 22.228382 9.901892
RightUpLeg -58.780228 3.363829 13.376947
RightLeg 3.614918 -0.000000 -0.000000
RightFoot -9.627857 -4.567498 4.965199
RightToeBase 20.817015 -0.000000 -0.000000
LeftUpLeg -46.327939 -20.284243 3.951144
LeftLeg -7.617038 -0.000000 0.000000
LeftFoot -8.777699 -6.116585 -6.776512
LeftToeBase 11.359647 -0.000000 -0.000000
Spine -35.913287 -29.982167 -21.069557
RightShoulder -24.161451 16.443920 -73.922379
RightArm -6.581929 -16.685137 19.094220
RightForeArm 11.212104 -0.000000 -6.407201
RightHand 9.750590 -0.000000 5.138314
RightHandThumb1 -24.326973 -0.000000 -32.862282
LeftShoulder -9.943259 4.985534 5.681084
LeftArm 21.575644 0.823372 -65.416044
LeftForeArm 18.373269 0.000000 0.068992
LeftHand -25.923229 -0.000000 14.511070
LeftHandThumb1 -26.253704 0.000000 33.147579
Head -11.402530 -5.893097 -33.386360
